<svg id="Layer_1" data-name="Layer 1" xmlns="http://www.w3.org/2000/svg" viewBox="0 0 622.95 114.81"><defs><style>.cls-3{fill:#fff}.cls-2{fill:#0094c2}.cls-3{stroke:#fff;stroke-width:.55px}</style></defs><path style="stroke:#0094c2;stroke-width:1.1px;fill:#fff" d="M.55.55H622.4v113.71H.55z"/><path class="cls-2" d="M.55.55h343.21v113.71H.55z"/><path class="cls-2" d="M391.45 57.89a8.08 8.08 0 0 1-6.3 2.82 9.58 9.58 0 0 1 0-19.13c4.1 0 7.17 2.58 8.57 6.45h-2.85a6.25 6.25 0 0 0-5.72-3.84c-3.7 0-6.46 3.36-6.46 6.93s2.73 7 6.46 7a6.23 6.23 0 0 0 6.22-5.35H385v-2.62h9V60.4h-2.61zM407.08 44.61c2.07 0 3.32.93 3.32 3.08a2.93 2.93 0 0 1-3.24 3h-5.5v-6.1zM410.9 52a5.13 5.13 0 0 0 2.19-4.31c0-3.61-2.53-5.66-6-5.66H399V60.4h2.67v-7.06h5.55c2.26 0 2.71 1.09 2.71 3.14a9.72 9.72 0 0 0 .37 3.92h2.7a13.78 13.78 0 0 1-.5-4.53 4.69 4.69 0 0 0-1.6-3.87zM417.92 42h13.13v2.58h-10.46v4.93H430v2.58h-9.45v5.71h10.46v2.6h-13.09zM441.84 45.25l2.49 7.42h-5zm5.24 15.15h3l-6.78-18.35h-2.81l-6.91 18.35h2.91l1.88-5.18h6.86zM458.55 60.4h-2.66V44.61h-5.56V42h13.78v2.58h-5.56zM468 42h13.13v2.58h-10.45v4.93h9.45v2.58h-9.45v5.71h10.46v2.6H468zM493.84 44.61c2.07 0 3.32.93 3.32 3.08a2.93 2.93 0 0 1-3.24 3h-5.5v-6.1zm3.82 7.39a5.13 5.13 0 0 0 2.19-4.31c0-3.61-2.53-5.66-6-5.66h-8.09V60.4h2.67v-7.06H494c2.26 0 2.71 1.09 2.71 3.14a9.72 9.72 0 0 0 .37 3.92h2.75a13.78 13.78 0 0 1-.5-4.53 4.72 4.72 0 0 0-1.67-3.87zM528.77 46.25 524 60.4h-2.73l-4.77-14.15V60.4h-2.69V42h3.77l5.06 14.51L527.72 42h3.75v18.4h-2.7zM537.19 42h2.24v18.4h-2.24zM551.34 45.25l2.49 7.42h-5zm5.24 15.15h3l-6.78-18.35H550l-6.92 18.35H546l1.88-5.18h6.86zM578 46.25l-4.72 14.15h-2.73l-4.77-14.15V60.4h-2.69V42h3.77l5.07 14.51L577 42h3.76v18.4H578zM586.46 42h2.24v18.4h-2.24zM376 76.18a9.34 9.34 0 0 1 9.1-9.56 8.72 8.72 0 0 1 8.53 6.45h-2.84a6 6 0 0 0-5.69-3.87c-3.73 0-6.43 3.4-6.43 7s2.7 7 6.43 7a6.31 6.31 0 0 0 5.72-3.87h2.81a8.91 8.91 0 0 1-8.53 6.47c-5.19-.05-9.1-4.56-9.1-9.62zM405.7 69.2c3.84 0 6.44 3.26 6.44 7s-2.68 7-6.44 7-6.43-3.34-6.43-7 2.67-7 6.43-7zm0 16.55a9.31 9.31 0 0 0 9.1-9.57c0-5.2-3.77-9.56-9.1-9.56a9.58 9.58 0 0 0 0 19.13zM422 71v14.44h-2.7V67.08h2.83l9.12 14.17V67.08h2.67v18.36h-2.8zM444.17 85.44l-6.75-18.36h2.91L445.49 82l5.19-14.88h2.89l-6.73 18.36zM457 67.07h13.12v2.58h-10.43v4.93h9.45v2.58h-9.45v5.68h10.46v2.6H457zM477.46 71v14.44h-2.69V67.08h2.82l9.13 14.17V67.08h2.66v18.36h-2.79zM501.57 85.44h-2.66V69.65h-5.56v-2.58h13.78v2.58h-5.56zM511.14 67.08h2.24v18.36h-2.24zM527.14 69.2c3.84 0 6.44 3.26 6.44 7s-2.68 7-6.44 7-6.43-3.34-6.43-7 2.67-7 6.43-7zm0 16.55a9.31 9.31 0 0 0 9.1-9.57c0-5.2-3.77-9.56-9.1-9.56a9.58 9.58 0 0 0 0 19.13zM543.43 71v14.44h-2.69V67.08h2.83l9.12 14.17V67.08h2.67v18.36h-2.8zM575.8 69.15a1.57 1.57 0 0 1 1.67 1.62c0 1.16-1.16 1.91-2.12 2.46a4 4 0 0 1-1.28-2.33 1.71 1.71 0 0 1 1.73-1.75zm6.07 16.29h3.46l-3-3.67a8.25 8.25 0 0 0 .79-3.63v-1.62h-2.62a16 16 0 0 1-.14 2.86l-3.44-4.19c1.67-1 3.18-2.33 3.18-4.48a4 4 0 0 0-4.29-4.09 4.34 4.34 0 0 0-4.51 4.28 6.23 6.23 0 0 0 1.61 3.66c-2.08 1.27-3.67 2.89-3.67 5.54 0 3.53 3.31 5.65 6.54 5.65a7.42 7.42 0 0 0 4.9-1.75zm-7.32-8.89L579 82a4.64 4.64 0 0 1-3.23 1.19c-1.81 0-3.81-1.14-3.81-3.1.04-1.63 1.29-2.72 2.59-3.54zM381.71 110.49 375 92.12h2.92L383 107l5.19-14.88h2.88l-6.72 18.37zM394.68 92.12h2.24v18.37h-2.24zM401.37 104.32h2.75c0 2.6 1.88 3.9 4.27 3.9 2 0 4.27-.67 4.27-3a2.36 2.36 0 0 0-1.64-2.23 12.7 12.7 0 0 0-1.73-.53c-3.1-.72-7.39-1-7.39-5.46 0-3.68 3.17-5.29 6.44-5.29 3.77 0 6.54 2 6.54 6.08h-2.72c0-2.44-1.57-3.5-3.8-3.5-1.75 0-3.74.59-3.74 2.65a2.17 2.17 0 0 0 1.62 2 9.57 9.57 0 0 0 1.73.5l2 .42c2.68.61 5.4 1.62 5.4 5.31 0 4-3.38 5.63-6.94 5.63-3.97 0-7.06-2.27-7.06-6.48zM419.91 92.12h2.24v18.37h-2.24zM434.43 110.49h-2.66v-15.8h-5.56v-2.58H440v2.58h-5.56zM450.87 94.24c3.84 0 6.43 3.26 6.43 7s-2.67 7-6.43 7-6.44-3.34-6.44-7 2.68-7 6.44-7zm0 16.56a9.32 9.32 0 0 0 9.1-9.58c0-5.2-3.78-9.56-9.1-9.56a9.58 9.58 0 0 0 0 19.14zM472.55 94.69c2.07 0 3.32.93 3.32 3.08a2.93 2.93 0 0 1-3.24 3h-5.5v-6.1zm3.83 7.39a5.14 5.14 0 0 0 2.18-4.31c0-3.61-2.53-5.66-6-5.66h-8.08v18.38h2.66v-7.07h5.55c2.26 0 2.71 1.1 2.71 3.14a9.79 9.79 0 0 0 .38 3.93h2.74A13.87 13.87 0 0 1 478 106a4.71 4.71 0 0 0-1.62-3.92zM482.12 104.32h2.75c0 2.6 1.88 3.9 4.27 3.9 2 0 4.27-.67 4.27-3a2.36 2.36 0 0 0-1.64-2.23 12.7 12.7 0 0 0-1.73-.53c-3.11-.72-7.39-1-7.39-5.46 0-3.68 3.17-5.29 6.43-5.29 3.78 0 6.55 2 6.55 6.08h-2.72c0-2.44-1.57-3.5-3.8-3.5-1.75 0-3.74.59-3.74 2.65a2.17 2.17 0 0 0 1.62 2 9.46 9.46 0 0 0 1.72.5l2 .42c2.68.61 5.4 1.62 5.4 5.31 0 4-3.39 5.63-6.94 5.63-3.96 0-7.05-2.27-7.05-6.48zM517.56 94.69c1.65 0 2.66.75 2.66 2.48a2.35 2.35 0 0 1-2.58 2.45h-5.29v-4.93zm.06 15.8c3.24 0 5.77-2.13 5.77-5.48a4.48 4.48 0 0 0-2.37-4.23 4.41 4.41 0 0 0 1.9-3.58c0-3.25-2.24-5.09-5.36-5.09h-7.87v18.38zm0-8.29c1.92 0 3.09.85 3.09 2.84a2.77 2.77 0 0 1-3 2.84h-5.37v-5.68zM527.51 103.82v-11.7h2.63v11.7a4.39 4.39 0 0 0 8.77 0v-11.7h2.66v11.7a7 7 0 0 1-14.06 0zM555 94.69c2.08 0 3.33.93 3.33 3.08a2.93 2.93 0 0 1-3.24 3h-5.5v-6.1zm3.83 7.39a5.13 5.13 0 0 0 2.17-4.31c0-3.61-2.53-5.66-6-5.66h-8.08v18.38h2.67v-7.07h5.55c2.26 0 2.71 1.1 2.71 3.14a9.79 9.79 0 0 0 .37 3.93h2.75a13.88 13.88 0 0 1-.51-4.54 4.68 4.68 0 0 0-1.67-3.87zM565.81 92.11h13.12v2.58h-10.46v4.93h9.46v2.58h-9.46v5.68h10.46v2.61h-13.12zM589.72 95.34l2.49 7.41h-5zm5.28 15.15h3l-6.78-18.36h-2.81l-6.91 18.36h2.91l1.89-5.19h6.85zM600.9 103.82v-11.7h2.63v11.7a4.39 4.39 0 0 0 8.77 0v-11.7h2.7v11.7a7 7 0 0 1-14.06 0z" transform="translate(-13.89 -19.3)"/><path class="cls-3" d="M333.65 106.75h2v.61H335v3.4h-.7v-3.4h-.67zM336.9 106.75h1l1.1 3.14 1.08-3.14h1v4h-.67v-3.1l-1.11 3.1h-.58l-1.12-3.1v3.1h-.66z" transform="translate(-13.89 -19.3)"/><path class="cls-3" d="M316.25 22.74v68.62h-2.56V22.74h2.56zM133.08 22.74v68.62h-2.56V22.74h2.56z"/><path class="cls-3" d="M205.33 91.3V44.71c0-.45-.18-.72-.67-.13L170.14 91.3zm2.54-46.3v65.62h-2.53V93.89h-37.12l-12.38 16.76h-3.33L202.62 43a2.87 2.87 0 0 1 2.38-1.28 2.78 2.78 0 0 1 2.11.86 3.48 3.48 0 0 1 .79 2.45zM131 43l-46.6 62.8V45a3.5 3.5 0 0 0-.79-2.46 2.78 2.78 0 0 0-2.11-.86A2.87 2.87 0 0 0 79.15 43L29 110.65h3.33l48.86-66.07c.48-.58.67-.32.67.14v65.93h2.33L133 44.58c.41-.58.67-.32.67.14v65.92h2.56V44.71a3.2 3.2 0 0 0-.8-2.14 2.81 2.81 0 0 0-2.1-.86A2.92 2.92 0 0 0 131 43zM313.79 43l-46.6 62.8V45.02a3.48 3.48 0 0 0-.79-2.45 2.8 2.8 0 0 0-2.11-.86A2.87 2.87 0 0 0 262 43l-50.11 67.61h3.33L264 44.58c.49-.59.67-.32.67.13v65.94H267l48.81-66.07c.41-.58.67-.32.67.14v65.91h2.56V44.69a3.16 3.16 0 0 0-.8-2.13 2.79 2.79 0 0 0-2.11-.86 2.92 2.92 0 0 0-2.34 1.3z" transform="translate(-13.89 -19.3)"/></svg>